<svg xmlns="http://www.w3.org/2000/svg" viewBox="0 0 36 36"><path fill="#A3A3A3" d="M3 16h28c1.1 0 2 .9 2 2s-.9 2-2 2H3c-1.1 0-2-.9-2-2s.9-2 2-2z"/><path fill="#737373" d="M31 16c1.1 0 2 .9 2 2s-.9 2-2 2"/><circle fill="#525252" cx="8" cy="18" r="1.5"/><circle fill="#525252" cx="13" cy="18" r="1.5"/><circle fill="#525252" cx="18" cy="18" r="1.5"/><circle fill="#525252" cx="23" cy="18" r="1.5"/><circle fill="#525252" cx="28" cy="18" r="1.5"/><path fill="#D4D4D4" d="M3 15h2v6H3c-.55 0-1-.45-1-1v-4c0-.55.45-1 1-1z"/><ellipse fill="#78716C" cx="33" cy="18" rx="2" ry="3"/></svg>