<svg xmlns="http://www.w3.org/2000/svg" viewBox="0 0 36 36"><path fill="#92400E" d="M3 28h30v4c0 1.1-.9 2-2 2H5c-1.1 0-2-.9-2-2v-4z"/><path fill="#B45309" d="M5 12h26v16H5z"/><path fill="#D97706" d="M7 14h2v10H7zm4 0h2v10h-2zm4 0h2v10h-2zm4 0h2v10h-2zm4 0h2v10h-2zm4 0h2v10h-2z"/><path fill="#78350F" d="M8 14h1v6H8zm4 0h1v6h-1zm4 0h1v6h-1zm4 0h1v6h-1zm4 0h1v6h-1z"/><path fill="#C4B5FD" d="M10 4c0-1.1.9-2 2-2h1v10h-3V4zm5-2h1c1.1 0 2 .9 2 2v8h-3V2zm5 0h1c1.1 0 2 .9 2 2v8h-3V2z"/><path fill="#8B5CF6" d="M8 2c0-1.1.9-2 2-2v12H8V2zm18 0c0-1.1.9-2 2-2v12h-2V2z"/></svg>